<svg width="846" height="282" viewBox="0 0 846 282" fill="none" xmlns="http://www.w3.org/2000/svg">
<path d="M82.183 281.382C67.3066 281.382 53.6095 277.481 41.0915 269.68C28.6643 261.879 18.6862 250.041 11.1573 234.167C3.7191 218.293 0 198.291 0 174.163C0 148.945 3.90052 128.445 11.7016 112.661C19.5933 96.878 29.7528 85.3125 42.18 77.965C54.698 70.6175 67.8509 66.9438 81.6388 66.9438C91.9797 66.9438 101.051 68.758 108.852 72.3864C116.653 75.924 123.184 80.6863 128.445 86.6731C133.706 92.5693 137.697 99.055 140.419 106.13H141.507V0H216.615V278.66H142.051V244.372H140.419C137.516 251.447 133.343 257.797 127.901 263.421C122.549 268.954 116.018 273.354 108.307 276.619C100.688 279.794 91.9797 281.382 82.183 281.382ZM109.94 223.69C116.834 223.69 122.73 221.695 127.629 217.703C132.618 213.621 136.427 207.907 139.058 200.559C141.779 193.121 143.14 184.322 143.14 174.163C143.14 163.822 141.779 154.978 139.058 147.63C136.427 140.192 132.618 134.523 127.629 130.622C122.73 126.631 116.834 124.635 109.94 124.635C103.046 124.635 97.1501 126.631 92.2518 130.622C87.4442 134.523 83.7251 140.192 81.0945 147.63C78.5546 154.978 77.2847 163.822 77.2847 174.163C77.2847 184.504 78.5546 193.393 81.0945 200.831C83.7251 208.179 87.4442 213.848 92.2518 217.839C97.1501 221.74 103.046 223.69 109.94 223.69Z" fill="black"/>
<rect x="241.615" y="0.190796" width="364" height="281" fill="black"/>
<path d="M698.103 230.493L698.647 141.235H708.444L759.06 71.0257H843.42L758.515 180.422H737.289L698.103 230.493ZM630.615 280.021V1.36066H705.722V280.021H630.615ZM759.604 280.021L711.709 197.294L760.693 143.956L845.597 280.021H759.604Z" fill="black"/>
</svg>
