<svg width="847" height="266" viewBox="0 0 847 266" fill="none" xmlns="http://www.w3.org/2000/svg">
<path d="M0 183.879C0 171.471 2.12086 160.231 6.36258 150.157C10.7103 140.083 16.9139 131.493 24.9731 124.388C33.0324 117.177 42.7883 111.663 54.241 107.846C65.7997 103.922 78.7369 101.96 93.0527 101.96C103.975 101.96 113.784 103.286 122.48 105.937C131.175 108.482 138.651 111.875 144.908 116.117V0H231.28V262.615H151.747L145.226 242.891C142.257 245.755 138.704 248.565 134.569 251.322C130.433 254.079 125.873 256.518 120.889 258.639C115.905 260.76 110.497 262.456 104.664 263.729C98.9381 265.001 92.8936 265.638 86.5311 265.638C74.5482 265.638 63.3077 263.888 52.8094 260.389C42.3111 256.889 33.1384 251.746 25.2913 244.959C17.4441 238.066 11.2406 229.53 6.68071 219.35C2.2269 209.064 0 197.24 0 183.879ZM89.0761 180.856C89.0761 189.976 89.9244 197.77 91.6211 204.239C93.4239 210.707 95.8628 216.01 98.9381 220.145C102.013 224.175 105.672 227.144 109.914 229.053C114.155 230.962 118.821 231.916 123.911 231.916C127.941 231.916 131.705 231.227 135.205 229.848C138.81 228.364 142.045 226.508 144.908 224.281V137.114C142.257 134.781 139.234 132.978 135.841 131.705C132.554 130.433 129.319 129.797 126.138 129.797C120.836 129.797 115.905 130.804 111.345 132.819C106.891 134.728 102.968 137.75 99.5743 141.885C96.287 146.021 93.689 151.323 91.7802 157.792C89.9775 164.155 89.0761 171.843 89.0761 180.856Z" fill="black"/>
<rect x="245.28" width="362" height="263" fill="black"/>
<path d="M621.28 0H707.652V171.312L771.755 104.983H819.474L768.892 156.36L846.992 262.615L750.281 262.456L707.652 201.376V262.615H621.28V0Z" fill="black"/>
</svg>
